<svg width="384" height="384" viewBox="0 0 384 384" fill="none" xmlns="http://www.w3.org/2000/svg">
<path d="M384 192C384 245.019 362.51 293.019 327.764 327.764C293.019 362.51 245.019 384 192 384C138.981 384 90.9807 362.51 56.2355 327.764C21.4903 293.019 0 245.019 0 192C0 138.981 21.4903 90.9806 56.2355 56.2355C90.9807 21.4903 138.981 -3.05176e-05 192 -3.05176e-05C245.019 -3.05176e-05 293.019 21.4903 327.764 56.2355C362.51 90.9806 384 138.981 384 192Z" fill="#E5E5E5"/>
<path d="M327.764 327.057L192.707 192L327.764 56.943C362.212 91.5699 383.5 139.298 383.5 192C383.5 244.702 362.212 292.43 327.764 327.057ZM327.057 56.2359L192 191.293L56.9431 56.2359C91.57 21.7883 139.298 0.499969 192 0.499969C244.702 0.499969 292.43 21.7883 327.057 56.2359ZM191.293 192L56.236 327.057C21.7883 292.43 0.5 244.702 0.5 192C0.5 139.298 21.7883 91.5699 56.236 56.943L191.293 192ZM56.9431 327.764L192 192.707L327.057 327.764C292.43 362.212 244.702 383.5 192 383.5C139.298 383.5 91.5699 362.212 56.9431 327.764Z" stroke="black" stroke-opacity="0.3"/>
</svg>
